<svg width="206" height="14" viewBox="0 0 206 14" fill="none" xmlns="http://www.w3.org/2000/svg">
<path fill-rule="evenodd" clip-rule="evenodd" d="M199.045 0L205.683 6.63804L199.045 13.2761L198.098 12.3285L203.788 6.63804L198.098 0.947567L199.045 0Z" fill="white"/>
<path fill-rule="evenodd" clip-rule="evenodd" d="M204.736 7.30784L164.228 7.30784L164.228 5.96777L204.736 5.96778L204.736 7.30784Z" fill="white"/>
<path fill-rule="evenodd" clip-rule="evenodd" d="M6.63788 13.2762L-0.000160025 6.6382L6.63788 0.000160537L7.58545 0.947728L1.89497 6.6382L7.58545 12.3287L6.63788 13.2762Z" fill="white"/>
<path fill-rule="evenodd" clip-rule="evenodd" d="M0.94758 5.96828L41.4556 5.96829L41.4556 7.30835L0.94758 7.30834L0.94758 5.96828Z" fill="white"/>
<rect x="125.164" y="1.45642" width="9.56667" height="9.56667" rx="4.78333" fill="white" fill-opacity="0.3"/>
<rect x="98.0581" y="1.45642" width="9.56667" height="9.56667" rx="4.78333" fill="white" fill-opacity="0.3"/>
<rect x="70.9526" y="1.4563" width="9.56667" height="9.56667" rx="4.78333" fill="white"/>
</svg>
