<svg width="28" height="28" viewBox="0 0 28 28" fill="none" xmlns="http://www.w3.org/2000/svg">
<path d="M26.4056 21.1437C25.8241 20.7345 25.1529 20.5147 24.475 20.4788C21.92 18.8057 20.2463 17.5498 19.2692 16.5727L16.2675 13.571L18.089 11.5321C18.4342 11.727 18.805 11.8554 19.1759 11.9083C19.4557 11.9549 19.6423 11.9549 19.8289 11.9549C20.2021 11.9549 20.2953 11.9549 20.6685 12.2814C20.4819 12.4214 20.3886 12.6546 20.3886 12.8878C20.3886 13.121 20.4819 13.4009 20.6685 13.5874L22.301 15.22C22.5342 15.4998 22.9073 15.6397 23.2805 15.6397C23.6537 15.6397 24.0268 15.4998 24.26 15.1733L27.5717 11.8616C27.8516 11.6284 27.9915 11.2553 27.9915 10.8821C27.9915 10.509 27.8516 10.1825 27.5717 9.90263L25.9392 8.2701C25.7526 8.08354 25.5194 7.99024 25.2861 7.99024C25.0529 7.99024 24.8197 8.13017 24.6331 8.2701C24.26 7.94361 24.26 7.85031 24.26 7.47714C24.26 7.29059 24.26 7.05735 24.1667 6.77749C24.0734 6.12447 23.7469 5.4715 23.2338 4.95841L21.5546 3.27925C20.5751 2.29974 20.1087 1.83333 18.8493 1.27361C16.144 0.0142402 13.3921 0.247475 9.38073 2.06656C9.1475 2.15987 9.05424 2.34642 9.10087 2.57966C9.14749 2.81289 9.3341 2.95282 9.56728 2.95282H10.1736C12.2259 2.95282 13.2987 2.95282 15.1645 4.81853C15.9814 5.63548 16.005 6.88813 15.273 7.80975C15.1744 7.82462 15.0993 7.86889 15.0245 7.94361L12.9526 10.2562L11.3864 8.68994C9.66491 6.96848 8.45408 5.33977 7.52218 3.5262C7.47326 2.60852 7.10501 1.74992 6.44221 1.08711C5.64931 0.294209 4.52987 -0.0789551 3.41043 0.0143496C3.2705 0.0609747 3.13057 0.154279 3.08395 0.247584C2.99064 0.387514 2.99064 0.574069 3.08395 0.713998L4.38994 3.04618C4.11008 3.65252 3.45706 4.02569 2.80409 3.97906L1.45142 1.74013C1.40479 1.6002 1.21818 1.5069 1.07825 1.5069C0.938322 1.46027 0.798392 1.55352 0.705087 1.69345C-0.414351 3.37261 0.00543853 5.61148 1.6846 6.77755C2.26312 7.19078 2.91488 7.42057 3.57496 7.46769C3.58234 7.4708 3.58928 7.47463 3.59693 7.4772C5.41602 8.41008 7.04855 9.62277 8.77433 11.3486L10.4802 13.0157L0.565212 24.0823C0.192048 24.4554 0.00549316 24.9685 0.00549316 25.4816C0.00549316 25.9947 0.192048 26.4611 0.565212 26.8342L1.21824 27.4873C1.5914 27.8137 2.05781 28.0004 2.52423 28.0004C2.99064 28.0004 3.50374 27.8138 3.8769 27.4406L13.7806 16.3549L16.6571 19.2314C17.6357 20.21 18.8937 21.9335 20.5705 24.4484C20.6306 25.3461 20.998 26.1842 21.648 26.8342C22.3476 27.5339 23.2805 27.907 24.26 27.907C24.3999 27.907 24.5399 27.907 24.6332 27.907C24.7731 27.907 24.913 27.8137 25.0063 27.6738C25.0996 27.5339 25.0996 27.3473 25.0063 27.2074L23.6537 24.9219C23.9802 24.3156 24.5866 23.9424 25.2862 23.989L26.5922 26.2279C26.6388 26.3678 26.8254 26.4611 26.9654 26.4611C27.1519 26.4145 27.2918 26.3678 27.3851 26.2279C28.5045 24.5487 28.0381 22.3098 26.4056 21.1437ZM15.7709 4.07231C14.2783 2.62639 13.1589 2.15992 11.8995 2.01999C14.5582 1.18041 16.5172 1.22704 18.4762 2.1133C19.5957 2.57971 19.9688 2.95287 20.9483 3.93238L22.6275 5.61154C23.0006 5.9847 23.2338 6.45112 23.2805 6.91753C23.3271 7.15077 23.3271 7.33732 23.3271 7.47725C23.3271 7.99034 23.3738 8.36345 23.9335 8.92317C24.12 9.10973 24.3999 9.20303 24.6331 9.20303C24.913 9.20303 25.1462 9.10973 25.2861 8.92317L26.9187 10.5557C27.012 10.649 27.0586 10.7423 27.0586 10.8822C27.0586 11.0221 27.012 11.1154 26.9187 11.2087L23.607 14.5204C23.4204 14.7069 23.1406 14.7069 22.954 14.5204L21.3214 12.8878C21.508 12.7479 21.6013 12.5147 21.5547 12.2348C21.5547 12.0016 21.4614 11.7217 21.2748 11.5352C20.7151 10.9754 20.3419 10.9288 19.8289 10.9288C19.689 10.9288 19.5024 10.9288 19.2692 10.8822C18.7561 10.8356 18.3363 10.6023 17.9632 10.2292L15.9575 8.22352C16.9836 6.96421 16.8904 5.19175 15.7709 4.07231ZM1.12493 2.95287L2.10444 4.63203C2.19774 4.77196 2.33767 4.86527 2.4776 4.86527H2.71084C3.78365 4.91189 4.76316 4.35217 5.22957 3.41934L5.32288 3.18611C5.41618 3.04618 5.41618 2.90625 5.32288 2.76632L4.29669 0.993858C4.85641 1.08716 5.3695 1.36702 5.78929 1.78681C6.27019 2.30778 6.57809 2.96665 6.59629 3.67439C6.58727 3.7103 6.58219 3.74894 6.58219 3.79251C6.58219 4.00852 6.55612 4.21924 6.50785 4.42236C6.3319 5.09774 5.90998 5.68659 5.32282 6.07806C4.38994 6.68441 3.13057 6.68441 2.19774 6.03144C1.21824 5.33168 0.798446 4.07231 1.12493 2.95287ZM9.42741 10.6956C8.02811 9.24971 6.62882 8.13027 5.13621 7.24402C5.36945 7.15071 5.64931 7.01078 5.88249 6.87085C6.58214 6.40444 7.04855 5.79804 7.32841 5.05177C8.21461 6.54437 9.33405 7.94367 10.7333 9.34296L12.3354 10.945L11.0791 12.3474L9.42741 10.6956ZM3.22388 26.7409C2.85071 27.1141 2.24437 27.1607 1.8712 26.7876L1.21818 26.1812C1.03163 25.9947 0.938322 25.7614 0.938322 25.5282C0.938322 25.2483 1.03163 25.0151 1.26481 24.7819L1.52898 24.4864L2.19769 25.1551C2.29099 25.2484 2.38424 25.295 2.52417 25.295C2.6641 25.295 2.75741 25.2484 2.85066 25.1551C3.03721 24.9685 3.03721 24.6887 2.85066 24.5021L2.14532 23.7967L2.76173 23.1071L3.50368 23.849C3.59699 23.9423 3.69024 23.989 3.83017 23.989C3.9701 23.989 4.0634 23.9423 4.15665 23.849C4.34321 23.6625 4.34321 23.3826 4.15665 23.196L3.37818 22.4175L15.3757 8.99445L17.3348 10.9535L15.4099 13.107C15.3549 13.1303 15.3063 13.1659 15.2578 13.2144L13.3921 15.3133C13.3388 15.3666 13.3013 15.4276 13.2785 15.4917L3.22388 26.7409ZM14.4188 15.6404L15.6953 14.2116L18.7094 17.2257C19.549 18.1119 20.9949 19.2314 23.0938 20.6306C22.814 20.724 22.5341 20.8639 22.2543 21.0504C21.6756 21.4121 21.2657 21.9143 20.9801 22.4694C20.9759 22.4773 20.972 22.4854 20.9679 22.4934C20.951 22.5268 20.9344 22.5604 20.9184 22.5941C20.8954 22.642 20.8735 22.6903 20.8526 22.7392C20.8382 22.7723 20.824 22.8054 20.8105 22.8386C20.8086 22.8435 20.8067 22.8483 20.8048 22.8531C20.7901 22.8896 20.7755 22.9261 20.7617 22.9628C20.4968 22.5742 20.2419 22.2075 19.9968 21.8621L20.6218 21.237C20.8083 21.0505 20.8083 20.7706 20.6218 20.584C20.4352 20.3975 20.1554 20.3975 19.9688 20.584L19.4488 21.104C19.255 20.841 19.0677 20.5929 18.8872 20.3596L19.3158 19.931C19.5023 19.7444 19.5023 19.4646 19.3158 19.278C19.1292 19.0914 18.8494 19.0914 18.6628 19.278L18.3067 19.634C17.9639 19.2209 17.6477 18.8692 17.3568 18.5783L14.4188 15.6404ZM26.9186 24.9685L25.9391 23.2893C25.8458 23.1494 25.7059 23.0561 25.566 23.0561H25.3327C24.2599 22.9628 23.2804 23.5692 22.814 24.502L22.7207 24.7352C22.6274 24.8752 22.6274 25.0151 22.7207 25.155L23.7468 26.9275C23.1871 26.8342 22.674 26.5543 22.2542 26.1345C21.7824 25.6234 21.4775 24.9796 21.4488 24.2872C21.4568 24.2531 21.4613 24.2165 21.4613 24.1755C21.4613 23.5846 21.6488 23.0314 21.9758 22.5628C22.1766 22.2833 22.4279 22.0386 22.7206 21.8434C23.187 21.5169 23.7001 21.377 24.2599 21.377C24.8196 21.377 25.3793 21.5635 25.8457 21.8901C26.8254 22.5897 27.2452 23.849 26.9186 24.9685Z" fill="#E3B873"/>
</svg>
