<svg width="33" height="33" viewBox="0 0 33 33" fill="none" xmlns="http://www.w3.org/2000/svg">
<path fill-rule="evenodd" clip-rule="evenodd" d="M3.2502 1.38188C3.2502 1.17097 3.42843 1 3.6483 1H32.3117C32.5315 1 32.7098 1.17097 32.7098 1.38188V29.0042C32.7098 29.2151 32.5315 29.3861 32.3117 29.3861C32.0918 29.3861 31.9136 29.2151 31.9136 29.0042V1.76375H3.6483C3.42843 1.76375 3.2502 1.59278 3.2502 1.38188Z" fill="white" stroke="white" stroke-width="0.5" stroke-linecap="round" stroke-linejoin="round"/>
<path d="M1.12719 7.30398L2.75308 5.67809L2.75308 29.437L2.75308 29.562L2.87808 29.562L3.668 29.562L3.793 29.562L3.793 29.437L3.793 5.67809L5.41889 7.30398C5.62195 7.50704 5.95117 7.50704 6.15423 7.30398C6.35729 7.10092 6.35729 6.7717 6.15423 6.56865L3.64071 4.05512C3.43765 3.85207 3.10843 3.85207 2.90537 4.05512L0.391855 6.56865C0.188797 6.7717 0.188798 7.10092 0.391855 7.30398C0.594913 7.50704 0.924134 7.50704 1.12719 7.30398Z" fill="white" stroke="white" stroke-width="0.25"/>
<path d="M25.1263 27.2914L26.7604 28.9171L2.87711 28.9171H2.75211V29.0421V29.832V29.957H2.87711L26.7604 29.957L25.1263 31.5827C24.9221 31.7858 24.9221 32.1154 25.1263 32.3185C25.3301 32.5212 25.6603 32.5212 25.8641 32.3185L28.3907 29.8049C28.5949 29.6018 28.5949 29.2723 28.3907 29.0691L25.8641 26.5556C25.6603 26.3529 25.3301 26.3529 25.1263 26.5556C24.9221 26.7587 24.9221 27.0883 25.1263 27.2914Z" fill="white" stroke="white" stroke-width="0.25"/>
<path fill-rule="evenodd" clip-rule="evenodd" d="M14.1625 1.11568C14.3167 1.26992 14.3167 1.52 14.1625 1.67424L9.42297 6.41378C9.26873 6.56802 9.01865 6.56802 8.86441 6.41378C8.71017 6.25953 8.71017 6.00946 8.86441 5.85522L13.6039 1.11568C13.7582 0.96144 14.0083 0.96144 14.1625 1.11568Z" fill="white" stroke="white" stroke-width="0.5" stroke-linecap="round" stroke-linejoin="round"/>
<path fill-rule="evenodd" clip-rule="evenodd" d="M32.4624 19.9423C32.6167 20.0966 32.6167 20.3467 32.4624 20.5009L28.1178 24.8455C27.9636 24.9997 27.7135 24.9997 27.5593 24.8455C27.405 24.6912 27.405 24.4412 27.5593 24.2869L31.9039 19.9423C32.0581 19.7881 32.3082 19.7881 32.4624 19.9423Z" fill="white" stroke="white" stroke-width="0.5" stroke-linecap="round" stroke-linejoin="round"/>
<path fill-rule="evenodd" clip-rule="evenodd" d="M20.0851 1.11391C20.2403 1.26716 20.2419 1.51724 20.0886 1.67246L9.81965 12.0731C9.6664 12.2283 9.41633 12.2299 9.2611 12.0767C9.10588 11.9234 9.10429 11.6733 9.25755 11.5181L19.5265 1.11747C19.6798 0.962245 19.9299 0.960652 20.0851 1.11391Z" fill="white" stroke="white" stroke-width="0.5" stroke-linecap="round" stroke-linejoin="round"/>
<path fill-rule="evenodd" clip-rule="evenodd" d="M32.594 13.3588C32.7482 13.5131 32.7482 13.7632 32.594 13.9174L22.5883 23.9231C22.434 24.0773 22.184 24.0773 22.0297 23.9231C21.8755 23.7688 21.8755 23.5188 22.0297 23.3645L32.0354 13.3588C32.1897 13.2046 32.4397 13.2046 32.594 13.3588Z" fill="white" stroke="white" stroke-width="0.5" stroke-linecap="round" stroke-linejoin="round"/>
<path fill-rule="evenodd" clip-rule="evenodd" d="M26.4085 1.24905C26.5615 1.40453 26.5595 1.65459 26.404 1.80759L9.94732 18.001C9.79184 18.154 9.54177 18.152 9.38878 17.9965C9.23578 17.841 9.2378 17.5909 9.39328 17.438L25.85 1.24454C26.0055 1.09155 26.2556 1.09357 26.4085 1.24905Z" fill="white" stroke="white" stroke-width="0.5" stroke-linecap="round" stroke-linejoin="round"/>
<path fill-rule="evenodd" clip-rule="evenodd" d="M32.5941 7.17135C32.7483 7.32559 32.7483 7.57566 32.5941 7.72991L16.0057 24.3183C15.8515 24.4725 15.6014 24.4725 15.4472 24.3183C15.2929 24.164 15.2929 23.914 15.4472 23.7597L32.0355 7.17135C32.1898 7.0171 32.4399 7.0171 32.5941 7.17135Z" fill="white" stroke="white" stroke-width="0.5" stroke-linecap="round" stroke-linejoin="round"/>
<path fill-rule="evenodd" clip-rule="evenodd" d="M32.3308 1.24679C32.485 1.40103 32.485 1.6511 32.3308 1.80534L9.68636 24.4498C9.53211 24.604 9.28204 24.604 9.1278 24.4498C8.97355 24.2956 8.97355 24.0455 9.1278 23.8912L31.7722 1.24679C31.9265 1.09254 32.1766 1.09254 32.3308 1.24679Z" fill="white" stroke="white" stroke-width="0.5" stroke-linecap="round" stroke-linejoin="round"/>
</svg>
